<svg width="24" height="25" viewBox="0 0 24 25" fill="none" xmlns="http://www.w3.org/2000/svg">
<g id="image" clip-path="url(#clip0_1_4887)">
<path id="Vector" d="M14.961 3.6387C15.6409 2.70493 16.1022 1.45114 15.9805 0.169922C14.9853 0.224263 13.7709 0.89091 13.0678 1.82541C12.4364 2.62567 11.8777 3.93195 12.0233 5.15946C13.1405 5.26588 14.2566 4.54627 14.961 3.6387Z" fill="black"/>
<path id="Vector_2" d="M16.3801 5.17728C14.559 5.06742 13.0106 6.22396 12.141 6.22396C11.2709 6.22396 9.93914 5.23264 8.49877 5.25935C6.62405 5.28724 4.88452 6.3607 3.93317 8.068C1.97642 11.4834 3.41678 16.5497 5.31962 19.3314C6.24369 20.7076 7.35733 22.2229 8.82474 22.1685C10.2112 22.1134 10.7546 21.2593 12.4399 21.2593C14.124 21.2593 14.6135 22.1685 16.0811 22.1409C17.6031 22.1134 18.5546 20.7641 19.4787 19.3865C20.5387 17.8177 20.9727 16.3029 21 16.2198C20.9727 16.1922 18.0652 15.0627 18.0382 11.6756C18.0108 8.8396 20.321 7.49062 20.4297 7.40696C19.1251 5.45296 17.0867 5.23264 16.3801 5.17728Z" fill="black"/>
</g>
<defs>
<clipPath id="clip0_1_4887">
<rect width="24" height="24" fill="white" transform="translate(0 0.169922)"/>
</clipPath>
</defs>
</svg>
