<svg width="25" height="25" viewBox="0 0 25 25" fill="none" xmlns="http://www.w3.org/2000/svg">
<rect width="25" height="25" fill="#1E1E1E"/>
<g id="uzum-minibox">
<rect width="1920" height="18742.2" transform="translate(-1380 -18478)" fill="#FAFAFA"/>
<g id="Main">
<g id="Footer">
<rect width="1920" height="323" transform="translate(-1380 -58.8301)" fill="white"/>
<g id="div.footer__main-container">
<g id="div.contact">
<g id="div.contact__item">
<g id="div.app-link">
<g id="Link">
<g id="image" filter="url(#filter0_d_0_1)">
<g id="image_2" clip-path="url(#clip0_0_1)">
<path id="Vector" d="M3.02656 0.570312C2.74662 0.850246 2.56 1.3168 2.56 1.87667V22.4985C2.56 23.0583 2.74662 23.5249 3.02656 23.8048L3.11987 23.8982L14.6905 12.3275L3.02656 0.570312Z" fill="url(#paint0_linear_0_1)"/>
<path id="Vector_2" d="M18.5163 16.153L14.6905 12.3273L18.5163 8.4082L23.0885 11.0209C24.3949 11.7674 24.3949 12.9804 23.0885 13.7269L18.5163 16.153Z" fill="url(#paint1_linear_0_1)"/>
<path id="Vector_3" d="M18.5163 16.1539L14.6905 12.3281L3.02655 23.8055C3.49311 24.272 4.14629 24.272 4.98609 23.8988L18.5163 16.1539Z" fill="url(#paint2_linear_0_1)"/>
<path id="Vector_4" d="M18.5163 8.40814L4.89278 0.476661C4.14629 0.0101028 3.3998 0.103414 3.02655 0.569972L14.6905 12.3272L18.5163 8.40814Z" fill="url(#paint3_linear_0_1)"/>
</g>
</g>
</g>
</g>
</g>
</g>
<path d="M200 213.17H-1040V215.17H200V213.17Z" fill="#76797F" fill-opacity="0.2" mask="url(#path-1-inside-1_0_1)"/>
</g>
</g>
</g>
</g>
<defs>
<filter id="filter0_d_0_1" x="-3.44" y="0.169922" width="32" height="32" filterUnits="userSpaceOnUse" color-interpolation-filters="sRGB">
<feFlood flood-opacity="0" result="BackgroundImageFix"/>
<feColorMatrix in="SourceAlpha" type="matrix" values="0 0 0 0 0 0 0 0 0 0 0 0 0 0 0 0 0 0 127 0" result="hardAlpha"/>
<feOffset dy="4"/>
<feGaussianBlur stdDeviation="2"/>
<feComposite in2="hardAlpha" operator="out"/>
<feColorMatrix type="matrix" values="0 0 0 0 0 0 0 0 0 0 0 0 0 0 0 0 0 0 0.25 0"/>
<feBlend mode="normal" in2="BackgroundImageFix" result="effect1_dropShadow_0_1"/>
<feBlend mode="normal" in="SourceGraphic" in2="effect1_dropShadow_0_1" result="shape"/>
</filter>
<linearGradient id="paint0_linear_0_1" x1="13.596" y1="1.66131" x2="-2.06386" y2="17.3212" gradientUnits="userSpaceOnUse">
<stop stop-color="#00A0FF"/>
<stop offset="0.00657445" stop-color="#00A1FF"/>
<stop offset="0.2601" stop-color="#00BEFF"/>
<stop offset="0.5122" stop-color="#00D2FF"/>
<stop offset="0.7604" stop-color="#00DFFF"/>
<stop offset="1" stop-color="#00E3FF"/>
</linearGradient>
<linearGradient id="paint1_linear_0_1" x1="24.8258" y1="12.1976" x2="2.2473" y2="12.1976" gradientUnits="userSpaceOnUse">
<stop stop-color="#FFE000"/>
<stop offset="0.4087" stop-color="#FFBD00"/>
<stop offset="0.7754" stop-color="#FFA500"/>
<stop offset="1" stop-color="#FF9C00"/>
</linearGradient>
<linearGradient id="paint2_linear_0_1" x1="16.4209" y1="14.3396" x2="-4.81525" y2="35.5757" gradientUnits="userSpaceOnUse">
<stop stop-color="#FF3A44"/>
<stop offset="1" stop-color="#C31162"/>
</linearGradient>
<linearGradient id="paint3_linear_0_1" x1="0.0636334" y1="-6.30177" x2="9.54651" y2="3.18101" gradientUnits="userSpaceOnUse">
<stop stop-color="#32A071"/>
<stop offset="0.0685" stop-color="#2DA771"/>
<stop offset="0.4762" stop-color="#15CF74"/>
<stop offset="0.8009" stop-color="#06E775"/>
<stop offset="1" stop-color="#00F076"/>
</linearGradient>
<clipPath id="clip0_0_1">
<rect width="24" height="24" fill="white" transform="translate(0.559998 0.169922)"/>
</clipPath>
</defs>
</svg>
